# xmcd
#
# Track frame offsets:
#	151
#	14050
#	31620
#	49152
#	65334
#	81843
#	100091
#	111243
#	125569
#	138464
#	155537
#	171296
#	188326
#	207059
#	222330
#
# Disc length: 3197 seconds
#
# Revision: 1
# Processed by: cddbd v1.5.2PL0 Copyright (c) Steve Scherf et al.
# Submitted via: EasyCDDAExtractor 7.0.3.1
#
DISCID=cc0c7b0f
DTITLE=Lenny Paquette - Credit Cards and Cadillacs
DYEAR=2002
DGENRE=Country
TTITLE0=I'll Cover You With Kisses 
TTITLE1=Don't Make Me Feel Better
TTITLE2=On The Beach
TTITLE3=Credit Cards and Cadillacs
TTITLE4=Shenandoah Sunrise 
TTITLE5=Rosa's Muy Caliente
TTITLE6=Watch Out Boys (or You'll Get Whipped)
TTITLE7=Like Our Lovin'
TTITLE8=Help Me Stop My Sister (From Fixin Me Up)
TTITLE9=You Can't Live Without Love
TTITLE10=Tennessee Lullaby
TTITLE11=Get In, Sit Down, Shut Up and Hold On
TTITLE12=Life's Not the Same
TTITLE13=Why Lie, I Want A Beer
TTITLE14=Dust On A Diamond
EXTD=
EXTT0=
EXTT1=
EXTT2=
EXTT3=
EXTT4=
EXTT5=
EXTT6=
EXTT7=
EXTT8=
EXTT9=
EXTT10=
EXTT11=
EXTT12=
EXTT13=
EXTT14=
PLAYORDER=
